# xmcd
#
# Track frame offsets:
#	150
#	21744
#	42380
#	60389
#	92540
#	112994
#	132749
#	156651
#	179305
#	207522
#	223337
#	246052
#	270321
#	291160
#	331716
#
# Disc length: 4789 seconds
#
# Revision: 1
# Processed by: cddbd v1.5.2PL0 Copyright (c) Steve Scherf et al.
# Submitted via: audiograbber 1.83.01
#
DISCID=e712b30f
DTITLE=Eric Clapton - Back Home CD1
DYEAR=1900
DGENRE=
TTITLE0=So Tired
TTITLE1=Say what you will
TTITLE2=I'm going left
TTITLE3=Love don't Love nobody
TTITLE4=Revelution
TTITLE5=Love comes to Everyone
TTITLE6=Lost and Found
TTITLE7=Piece of my Heart
TTITLE8=One Day
TTITLE9=One Track Mind
TTITLE10=Run Home to me
TTITLE11=Back Home
TTITLE12=Tears in Heaven
TTITLE13=Wonderfull Tonight
TTITLE14=Change the World
EXTD=
EXTT0=
EXTT1=
EXTT2=
EXTT3=
EXTT4=
EXTT5=
EXTT6=
EXTT7=
EXTT8=
EXTT9=
EXTT10=
EXTT11=
EXTT12=
EXTT13=
EXTT14=
PLAYORDER=
